<svg width="40" height="40" viewBox="0 0 40 40"  xmlns="http://www.w3.org/2000/svg">
<path d="M35.2681 28.5338C35.1173 28.7015 34.8681 28.5861 34.6943 28.5246C34.3127 28.3892 33.9496 28.2384 33.5435 28.1892C32.5204 28.0661 31.5389 28.5399 30.7481 29.1599C29.9927 29.7522 29.4327 30.5261 28.7435 31.1769C28.1096 31.7753 27.4958 32.3784 26.802 32.9107C25.4373 33.9569 23.9004 34.7753 22.2404 35.2384C21.882 35.3384 21.5173 35.4215 21.1512 35.4892C20.0558 35.6922 15.4804 36.4646 11.0681 33.7122C6.46196 30.8384 4.63426 25.743 4.62503 21.9753C4.62042 20.0092 5.10965 18.4184 5.22811 18.0492C5.83119 16.1692 6.84657 14.5507 8.08657 13.1984C8.37273 12.8876 8.50196 12.4661 8.43273 12.0492C8.00811 9.4784 7.58811 5.76148 8.6958 5.33225C8.83426 5.2784 9.00657 5.27379 9.22042 5.34456C9.42811 5.40763 9.63734 5.4784 9.84811 5.55994C11.5158 6.20763 12.7758 7.27379 13.7035 8.34456C14.0589 8.75532 14.6266 8.90609 15.1435 8.74302C16.3173 8.37532 17.445 8.18148 18.4312 8.16763C20.5281 8.13532 22.5358 8.78917 22.5358 8.78917C22.7066 8.84456 22.8712 8.89994 23.0327 8.95686C23.5281 9.13071 24.0835 9.00456 24.4481 8.62609C25.4681 7.56917 26.8527 6.51686 28.6558 5.96763C28.8727 5.90148 29.0866 5.84609 29.2973 5.7984C29.5173 5.74302 29.6866 5.75994 29.822 5.82456C31.0373 6.3984 30.2912 10.4722 29.6604 12.9169C29.6466 12.9615 29.5696 13.2984 29.5604 13.3507C29.4496 14.0322 28.9727 15.1015 28.8804 15.3461C28.7389 15.7246 28.5466 16.1307 28.2712 16.5846C27.3804 18.0507 25.9496 19.0446 25.1496 19.2707C24.8281 19.3599 24.4866 19.2107 24.3143 18.9246C23.785 18.0522 22.6435 16.5538 20.6696 15.9184C20.4081 15.8338 19.6681 15.6338 18.7835 15.6338C15.1312 15.6338 12.2004 18.7215 12.4589 22.4292C12.6758 25.5338 15.1743 28.0553 18.2773 28.2969C19.482 28.3907 20.5712 28.0646 20.6696 28.0307C21.6373 27.7107 22.4896 27.1369 23.2266 26.443C24.222 25.5046 25.165 24.3522 26.402 23.6938C27.7204 22.9922 29.3066 22.743 30.7696 23.0492C34.1389 23.7553 35.842 27.8984 35.2666 28.5338H35.2681Z" fill="url(#paint0_linear_1136_183299)"/>
<path d="M23.2354 8.98611C24.4246 7.59534 26.2215 6.0215 28.743 5.27842C28.9877 5.20611 29.2292 5.14458 29.4692 5.09381C29.7169 5.03381 29.9092 5.05381 30.0615 5.12304C31.4354 5.74919 30.26 10.7846 29.5461 13.4461C28.623 12.4261 27.303 11.203 25.5015 10.1277C24.7077 9.65381 23.9415 9.2815 23.2369 8.98765L23.2354 8.98611Z" fill="url(#paint1_linear_1136_183299)"/>
<path d="M15.5565 8.98764C12.5965 6.79534 10.375 5.26918 9.88419 5.03534C9.50573 4.85534 9.12573 4.80611 9.12573 4.80611C8.9288 4.7538 8.63496 4.76918 8.49804 4.81072C7.68111 5.05841 7.9488 8.48457 8.0088 9.18918C8.09342 10.1861 8.26111 11.6123 8.6288 13.3261C9.3888 12.7923 11.0442 11.6292 11.3073 11.4446C11.3211 11.4353 11.3503 11.4153 11.3873 11.3892C11.4888 11.32 11.655 11.2061 11.8611 11.0707C12.0503 10.9476 12.275 10.8061 12.5334 10.6538C12.7903 10.5015 12.9873 10.3938 13.0934 10.3353C14.2473 9.70303 15.4088 9.06764 15.5534 8.98918L15.5565 8.98764Z" fill="url(#paint2_linear_1136_183299)"/>
<defs>
<linearGradient id="paint0_linear_1136_183299" x1="37.7112" y1="40.7769" x2="6.53426" y2="3.65379" gradientUnits="userSpaceOnUse">
<stop offset="0.08" stop-color="#5353ef"/>
<stop offset="0.28" stop-color="#3333ED"/>
<stop offset="0.29" stop-color="#3232ED"/>
<stop offset="0.44" stop-color="#3434ED"/>
<stop offset="0.55" stop-color="#3E3EEF"/>
<stop offset="0.65" stop-color="#4E4EF2"/>
<stop offset="0.74" stop-color="#6464F6"/>
<stop offset="0.76" stop-color="#6969F7"/>
<stop offset="0.91" stop-color="#7B7BFF"/>
</linearGradient>
<linearGradient id="paint1_linear_1136_183299" x1="23.723" y1="15.0261" x2="31.1784" y2="4.37535" gradientUnits="userSpaceOnUse">
<stop offset="0.06" stop-color="#4949F1"/>
<stop offset="0.31" stop-color="#3E3EEF"/>
<stop offset="0.94" stop-color="#5858F4"/>
</linearGradient>
<linearGradient id="paint2_linear_1136_183299" x1="3.84276" y1="12.4437" x2="-4.74582" y2="1.41098" gradientUnits="userSpaceOnUse">
<stop offset="0.13" stop-color="#7070FA"/>
<stop offset="0.3" stop-color="#6C6CF9"/>
<stop offset="0.43" stop-color="#6363F7"/>
<stop offset="0.55" stop-color="#5353F3"/>
<stop offset="0.62" stop-color="#4646F1"/>
<stop offset="0.76" stop-color="#4242F0"/>
<stop offset="0.91" stop-color="#3636ED"/>
<stop offset="0.94" stop-color="#3333ED"/>
</linearGradient>
</defs>
</svg>
