<svg width="17" height="12" viewBox="0 0 17 12" fill="none" xmlns="http://www.w3.org/2000/svg">
<path d="M1.04615 6.26054C0.983641 6.09215 0.983641 5.90692 1.04615 5.73854C1.65492 4.26243 2.68828 3.00032 4.01522 2.11221C5.34217 1.22411 6.90293 0.75 8.49965 0.75C10.0964 0.75 11.6571 1.22411 12.9841 2.11221C14.311 3.00032 15.3444 4.26243 15.9531 5.73854C16.0157 5.90692 16.0157 6.09215 15.9531 6.26054C15.3444 7.73665 14.311 8.99876 12.9841 9.88686C11.6571 10.775 10.0964 11.2491 8.49965 11.2491C6.90293 11.2491 5.34217 10.775 4.01522 9.88686C2.68828 8.99876 1.65492 7.73665 1.04615 6.26054Z" stroke="#303030" stroke-width="1.5" stroke-linecap="round" stroke-linejoin="round"/>
<path d="M8.49965 8.24954C9.74229 8.24954 10.7496 7.24218 10.7496 5.99954C10.7496 4.7569 9.74229 3.74954 8.49965 3.74954C7.25701 3.74954 6.24965 4.7569 6.24965 5.99954C6.24965 7.24218 7.25701 8.24954 8.49965 8.24954Z" stroke="#303030" stroke-width="1.5" stroke-linecap="round" stroke-linejoin="round"/>
</svg>
