<svg width="45" height="45" viewBox="0 0 45 45" fill="none" xmlns="http://www.w3.org/2000/svg">
<rect width="45" height="45" rx="22.5" fill="#3E3EEF"/>
<path d="M25.552 33.432C24.592 33.432 23.888 33.112 23.44 32.472C22.992 31.768 22.768 31.032 22.768 30.264C22.896 28.536 23.248 26.808 23.824 25.08C24.4 23.352 25.04 21.784 25.744 20.376C26.512 18.904 27.152 17.752 27.664 16.92C28.048 16.216 28.432 15.704 28.816 15.384C29.264 15.064 29.584 14.904 29.776 14.904C30.032 14.904 30.16 15.032 30.16 15.288C30.16 15.48 30.064 15.736 29.872 16.056C28.272 17.976 27.248 19.736 26.8 21.336C26.416 22.936 26.224 24.376 26.224 25.656C27.12 26.36 27.76 27.128 28.144 27.96C28.592 28.728 28.816 29.368 28.816 29.88C28.752 31.416 28.4 32.408 27.76 32.856C27.12 33.24 26.384 33.432 25.552 33.432ZM16.048 33.432C15.088 33.432 14.384 33.112 13.936 32.472C13.488 31.768 13.264 31.032 13.264 30.264C13.392 28.536 13.744 26.808 14.32 25.08C14.896 23.352 15.536 21.784 16.24 20.376C17.008 18.904 17.648 17.752 18.16 16.92C18.544 16.216 18.928 15.704 19.312 15.384C19.76 15.064 20.08 14.904 20.272 14.904C20.528 14.904 20.656 15.032 20.656 15.288C20.656 15.48 20.56 15.736 20.368 16.056C18.768 17.976 17.744 19.736 17.296 21.336C16.912 22.936 16.72 24.376 16.72 25.656C17.616 26.36 18.256 27.128 18.64 27.96C19.088 28.728 19.312 29.368 19.312 29.88C19.248 31.416 18.896 32.408 18.256 32.856C17.616 33.24 16.88 33.432 16.048 33.432Z" fill="white"/>
</svg>
